<svg id="Layer_1" data-name="Layer 1" xmlns="http://www.w3.org/2000/svg" viewBox="0 0 192.6 36.4"><title>device_illustration_Cool_inc-logo</title><path d="M0,18.2C0,7.05,6.6,0,16.9,0c7.35,0,12.9,3.55,15.45,10.2L26.6,12.45C25.05,8.1,21.65,6,16.9,6c-6.75,0-10.65,4.4-10.65,12.2s3.95,12.3,10.65,12.3c4.8,0,8.2-2.25,9.7-6.65L32.45,26C30,32.75,24.35,36.4,16.9,36.4,6.6,36.4,0,29.35,0,18.2Z"/><path d="M34,23.3c0-7,4.7-12.8,12.35-12.8S58.7,16.3,58.7,23.3,54,36.15,46.35,36.15,34,30.25,34,23.3Zm18.7,0c0-4.05-1.8-7.55-6.35-7.55S40,19.25,40,23.3s1.8,7.6,6.35,7.6S52.7,27.3,52.7,23.3Z"/><path d="M61.3,23.3c0-7,4.7-12.8,12.35-12.8S86,16.3,86,23.3,81.25,36.15,73.65,36.15,61.3,30.25,61.3,23.3Zm18.7,0c0-4.05-1.8-7.55-6.35-7.55s-6.35,3.5-6.35,7.55,1.8,7.6,6.35,7.6S80,27.3,80,23.3Z"/><path d="M90.55,29.75V.8h6V29.35c0,1.1.65,1.55,1.75,1.55a7.08,7.08,0,0,0,1.9-.3v4.8a11.38,11.38,0,0,1-3.85.75C93,36.15,90.55,34.15,90.55,29.75Z"/><path d="M117.75.8H124V35.65h-6.25Z"/><path d="M154.05,19.75v15.9h-6V21.25c0-1.7,0-5.5-4.55-5.5-5.6,0-5.6,5.65-5.6,10.05v9.85h-6V11h6v2.85a8.87,8.87,0,0,1,7.45-3.35C150.9,10.5,154.05,13.9,154.05,19.75Z"/><path d="M158.35,23.4c0-6.5,3.85-12.9,11.9-12.9a10.72,10.72,0,0,1,10.65,7.25L175.2,20c-.65-2.6-2.5-4.25-4.95-4.25-4.15,0-5.75,3.75-5.75,7.65s1.55,7.5,5.75,7.5a5.09,5.09,0,0,0,4.95-4.15l5.45,2.1a10.55,10.55,0,0,1-10.35,7.3C162.25,36.15,158.35,29.9,158.35,23.4Z"/><path d="M186.55,29.15h6v6.5h-6Z"/></svg>