<svg id="Layer_1" data-name="Layer 1" xmlns="http://www.w3.org/2000/svg" viewBox="0 0 599 433"><defs><style>.cls-1,.cls-2,.cls-3,.cls-6,.cls-7{fill:none;stroke:#2c2c2c;stroke-miterlimit:10;}.cls-2{stroke-dasharray:12.1 12.1;}.cls-3{stroke-dasharray:12.21 12.21;}.cls-4{fill:#0ecbae;fill-opacity:0.6;}.cls-5{fill:#2c2c2c;}.cls-6{stroke-dasharray:12 12;}.cls-7{stroke-dasharray:11.42 11.42;}</style></defs><title>device_illustration_max-width_1</title><polyline class="cls-1" points="432.5 391.12 432.5 397.12 426.5 397.12"/><line class="cls-2" x1="414.4" y1="397.12" x2="178.55" y2="397.12"/><polyline class="cls-1" points="172.5 397.12 166.5 397.12 166.5 391.12"/><line class="cls-3" x1="166.5" y1="378.91" x2="166.5" y2="92.03"/><polyline class="cls-1" points="166.5 85.93 166.5 79.93 172.5 79.93"/><line class="cls-2" x1="184.6" y1="79.93" x2="420.45" y2="79.93"/><polyline class="cls-1" points="426.5 79.93 432.5 79.93 432.5 85.93"/><line class="cls-3" x1="432.5" y1="98.14" x2="432.5" y2="385.01"/><rect class="cls-4" x="239.5" y="124.52" width="119.5" height="26"/><rect class="cls-4" x="166.92" y="80.35" width="265.16" height="21.82"/><rect class="cls-1" x="34.5" y="40.02" width="530" height="368.5"/><rect class="cls-4" x="35.34" y="40.55" width="528.33" height="27.31"/><line class="cls-1" x1="384.18" y1="238.52" x2="525" y2="238.52"/><polygon class="cls-5" points="385.63 243.51 377 238.52 385.63 233.54 385.63 243.51"/><line class="cls-1" x1="214.32" y1="238.52" x2="73.5" y2="238.52"/><polygon class="cls-5" points="212.87 233.54 221.5 238.52 212.87 243.51 212.87 233.54"/><path class="cls-5" d="M283.83,50.3v8.36H282.6v-6h-2V51.62h1.21c.53,0,.8-.2.8-.74V50.3Z"/><path class="cls-5" d="M292.53,57.5v1.16H286.7v-1c1.63-1,4.24-2.75,4.24-4.79a1.29,1.29,0,0,0-1.37-1.45c-1.13,0-1.55.91-1.57,1.89l-1.21-.09a2.78,2.78,0,0,1,2.79-3,2.44,2.44,0,0,1,2.59,2.57c0,2-1.7,3.69-3.37,4.74Z"/><path class="cls-5" d="M293.81,54.49c0-1.86.33-4.32,2.74-4.32,2.2,0,2.81,2.17,2.81,4.33s-.6,4.28-2.72,4.28C294.17,58.78,293.81,56.32,293.81,54.49Zm4.23,0c0-1.58-.16-3.12-1.49-3.12s-1.47,1.59-1.47,3.14.11,3.1,1.52,3.1S298,56,298,54.47Z"/><path class="cls-5" d="M300.75,54.49c0-1.86.34-4.32,2.75-4.32,2.19,0,2.81,2.17,2.81,4.33s-.6,4.28-2.73,4.28C301.11,58.78,300.75,56.32,300.75,54.49Zm4.24,0c0-1.58-.16-3.12-1.49-3.12S302,52.94,302,54.49s.11,3.1,1.53,3.1S305,56,305,54.47Z"/><path class="cls-5" d="M313.49,55.71c0,1.87-1,3.06-2.53,3.06a2.24,2.24,0,0,1-1.78-.78v3.12h-1.24V52.75h1.24v.66a2.17,2.17,0,0,1,1.78-.78C312.58,52.63,313.49,53.91,313.49,55.71Zm-1.23,0c0-1.25-.53-2-1.57-2s-1.63.8-1.63,2,.51,2,1.62,2S312.26,56.91,312.26,55.7Z"/><path class="cls-5" d="M316,55.68l-2.06-2.93h1.51l1.38,2.09,1.38-2.09h1.51l-2.08,2.93,2.08,3h-1.51l-1.38-2.12-1.38,2.12h-1.51Z"/><path class="cls-5" d="M219.27,25.58a5.23,5.23,0,0,1,5.41-5.4A5.11,5.11,0,0,1,230,25.42c0,1.82-.86,3.67-2.73,3.67a1.34,1.34,0,0,1-1.44-1,2.44,2.44,0,0,1-.11-.64,2.46,2.46,0,0,1-1.87.9c-1.3,0-1.93-1.05-1.93-2.3,0-1.59,1-3.67,2.89-3.67a1.56,1.56,0,0,1,1.56.95l.13-.66h1a34.61,34.61,0,0,0-.89,4.57c0,.55.12.8.62.8,1.3,0,1.8-1.41,1.8-2.67a4.17,4.17,0,0,0-4.34-4.27,4.29,4.29,0,0,0-4.45,4.43,4.08,4.08,0,0,0,4.35,4.17,4.64,4.64,0,0,0,1.48-.24l.33.92a4.8,4.8,0,0,1-1.82.32A5,5,0,0,1,219.27,25.58Zm6.74-.93c0-.79-.31-1.26-1.08-1.26-1.37,0-2.09,1.55-2.09,2.73,0,.8.35,1.28,1.08,1.28C225.29,27.4,226,25.84,226,24.65Z"/><path class="cls-5" d="M240,24.92v3.74h-1.23V25.28c0-.48,0-1.56-1.11-1.56s-1.28,1.26-1.28,2.49v2.45h-1.24V25.3c0-.65-.13-1.58-1.1-1.58-1.19,0-1.27,1.24-1.27,2.49v2.45h-1.24V22.75h1.19v.74a1.75,1.75,0,0,1,1.61-.85,1.73,1.73,0,0,1,1.72,1.16A2,2,0,0,1,238,22.64C239.4,22.64,240,23.67,240,24.92Z"/><path class="cls-5" d="M246.61,26.09h-4.15a1.5,1.5,0,0,0,1.62,1.56,1.86,1.86,0,0,0,1.51-.67l.87.74a3,3,0,0,1-2.39,1.05,2.75,2.75,0,0,1-2.84-3c0-1.58.86-3.09,2.74-3.09a2.63,2.63,0,0,1,2.68,2.91A3.27,3.27,0,0,1,246.61,26.09Zm-1.15-1v0a1.39,1.39,0,0,0-1.49-1.4,1.5,1.5,0,0,0-1.51,1.43Z"/><path class="cls-5" d="M253.09,20.3v8.36h-1.23V28a2.2,2.2,0,0,1-1.79.77c-1.64,0-2.53-1.3-2.53-3.07s1-3.07,2.53-3.07a2.28,2.28,0,0,1,1.79.78V20.3ZM252,25.71c0-1.13-.54-2-1.62-2s-1.58.76-1.58,2,.51,1.93,1.57,1.93S252,26.81,252,25.71Z"/><path class="cls-5" d="M254.91,20.3h1.32v1.29h-1.32Zm.05,2.45h1.23v5.91H255Z"/><path class="cls-5" d="M262.72,24.94v3.72h-1.13l-.1-.84a2.16,2.16,0,0,1-1.9.95,1.89,1.89,0,0,1-2.1-1.89,1.52,1.52,0,0,1,.81-1.44,4.09,4.09,0,0,1,1.8-.3h1.38v-.2a1.13,1.13,0,0,0-1.25-1.22,2,2,0,0,0-1.66.92l-.9-.75a3.15,3.15,0,0,1,2.58-1.25A2.2,2.2,0,0,1,262.72,24.94Zm-1.24,1.18v0h-1.23a2,2,0,0,0-1.26.24.67.67,0,0,0-.27.58c0,.5.42.81,1.09.81A1.58,1.58,0,0,0,261.48,26.12Z"/><path class="cls-5" d="M267.17,24.49a7.34,7.34,0,0,1,1.43-4.8h1.11a7.41,7.41,0,0,0-1.55,4.82,7.19,7.19,0,0,0,1.54,4.77h-1.08A7.86,7.86,0,0,1,267.17,24.49Z"/><path class="cls-5" d="M279.31,24.92v3.74h-1.23V25.28c0-.48,0-1.56-1.11-1.56s-1.28,1.26-1.28,2.49v2.45h-1.24V25.3c0-.65-.13-1.58-1.1-1.58-1.19,0-1.27,1.24-1.27,2.49v2.45h-1.24V22.75H272v.74a1.9,1.9,0,0,1,3.33.31,2,2,0,0,1,1.92-1.16C278.7,22.64,279.31,23.67,279.31,24.92Z"/><path class="cls-5" d="M285.7,24.94v3.72h-1.13l-.1-.84a2.16,2.16,0,0,1-1.9.95,1.89,1.89,0,0,1-2.1-1.89,1.52,1.52,0,0,1,.81-1.44,4.09,4.09,0,0,1,1.8-.3h1.38v-.2a1.13,1.13,0,0,0-1.25-1.22,2,2,0,0,0-1.66.92l-.9-.75a3.15,3.15,0,0,1,2.58-1.25A2.2,2.2,0,0,1,285.7,24.94Zm-1.24,1.18v0h-1.23a2,2,0,0,0-1.26.24.67.67,0,0,0-.27.58c0,.5.42.81,1.09.81A1.59,1.59,0,0,0,284.46,26.12Z"/><path class="cls-5" d="M288.65,25.68l-2.06-2.93h1.51l1.38,2.09,1.38-2.09h1.51l-2.08,2.93,2.08,3h-1.51l-1.38-2.12-1.38,2.12h-1.51Z"/><path class="cls-5" d="M293.15,24.61h3.37v.92h-3.37Z"/><path class="cls-5" d="M297.47,22.75h1.32l1.09,4,1.27-4h1.07l1.26,4,1.12-4h1.3l-1.78,5.91H303l-1.3-4.17-1.3,4.17h-1.12Z"/><path class="cls-5" d="M306.94,20.3h1.32v1.29h-1.32Zm.05,2.45h1.23v5.91H307Z"/><path class="cls-5" d="M315.17,20.3v8.36h-1.24V28a2.18,2.18,0,0,1-1.78.77c-1.65,0-2.53-1.3-2.53-3.07s1-3.07,2.53-3.07a2.26,2.26,0,0,1,1.78.78V20.3Zm-1.12,5.41c0-1.13-.54-2-1.62-2s-1.58.76-1.58,2,.52,1.93,1.57,1.93S314.05,26.81,314.05,25.71Z"/><path class="cls-5" d="M320,28.6a3.46,3.46,0,0,1-1,.17,1.53,1.53,0,0,1-1.68-1.68V23.74h-1v-1h1V21.27l1.23-.91v2.39H320v1h-1.46V27a.67.67,0,0,0,.75.74,2.28,2.28,0,0,0,.71-.13Z"/><path class="cls-5" d="M326.24,24.91v3.75H325V25.22c0-1-.37-1.5-1.16-1.5-1,0-1.48.78-1.48,2.46v2.48h-1.24V20.3h1.24v3.18a2.15,2.15,0,0,1,1.84-.84C325.53,22.64,326.24,23.44,326.24,24.91Z"/><path class="cls-5" d="M328.31,23h1.4V24.5h-1.4Zm0,4.17h1.4v1.48h-1.4Z"/><path class="cls-5" d="M336,26.19h-1.41V25.3h1.59l.37-1.77h-1.46V22.6h1.66l.52-2.3h1l-.52,2.35h1.67l.5-2.35h1l-.52,2.35h1.41v.88h-1.61l-.37,1.77h1.5v.89H339.6l-.53,2.47h-1l.53-2.47H337l-.5,2.47h-1Zm2.83-.89.36-1.77h-1.66l-.36,1.77Z"/><path class="cls-5" d="M348.79,25.71c0,1.87-1,3.06-2.53,3.06a2.28,2.28,0,0,1-1.79-.78v3.12h-1.23V22.75h1.23v.66a2.21,2.21,0,0,1,1.79-.78C347.88,22.63,348.79,23.91,348.79,25.71Zm-1.23,0c0-1.25-.53-2-1.58-2s-1.63.8-1.63,2,.52,2,1.62,2S347.56,26.91,347.56,25.7Z"/><path class="cls-5" d="M351.27,25.68l-2.07-2.93h1.51l1.38,2.09,1.38-2.09H355l-2.07,2.93,2.07,3h-1.51l-1.38-2.12-1.38,2.12H349.2Z"/><path class="cls-5" d="M355.28,29.28a7.19,7.19,0,0,0,1.54-4.77,7.37,7.37,0,0,0-1.56-4.82h1.12a7.34,7.34,0,0,1,1.43,4.8,7.86,7.86,0,0,1-1.45,4.79Z"/><path class="cls-5" d="M362.67,27.93V26.06c0-.65-.38-.81-.77-.94v-.84a.91.91,0,0,0,.77-1V21.38c0-1,.45-1.6,1.3-1.6h.84v.8h-.43c-.48,0-.67.32-.67.82v1.92a1.29,1.29,0,0,1-.8,1.35v.07a1.25,1.25,0,0,1,.8,1.3V27.9c0,.5.18.84.66.84h.44v.81H364C363.1,29.55,362.67,28.91,362.67,27.93Z"/><path class="cls-5" d="M366.42,27.18h1.33v1.48h-1.33Z"/><path class="cls-5" d="M370.3,27.18h1.33v1.48H370.3Z"/><path class="cls-5" d="M374.17,27.18h1.34v1.48h-1.34Z"/><path class="cls-5" d="M377.13,28.74h.44c.47,0,.65-.34.65-.84V26a1.25,1.25,0,0,1,.81-1.3v-.07a1.27,1.27,0,0,1-.81-1.35V21.4c0-.44-.15-.82-.67-.82h-.42v-.8H378c.85,0,1.3.59,1.3,1.6V23.3a.9.9,0,0,0,.76,1v.84c-.37.13-.76.28-.76.94v1.87c0,1-.43,1.62-1.29,1.62h-.85Z"/><path class="cls-5" d="M289.14,86.3V87l-3.83,7.68H283.9l3.68-7.17h-4.46V86.3Z"/><path class="cls-5" d="M296.08,91.9a3,3,0,1,1-5.51-1.52l2.51-4.08h1.41l-1.81,2.84a2.85,2.85,0,0,1,.77,0A2.72,2.72,0,0,1,296.08,91.9Zm-1.26,0a1.72,1.72,0,1,0-1.72,1.69A1.64,1.64,0,0,0,294.82,91.9Z"/><path class="cls-5" d="M297,92.22a2.21,2.21,0,0,1,1.33-2.11,1.85,1.85,0,0,1-.9-1.65,2.6,2.6,0,0,1,5.16,0,1.84,1.84,0,0,1-.9,1.64,2.22,2.22,0,0,1,1.32,2.11c0,1.71-1.44,2.55-3,2.55S297,93.93,297,92.22Zm4.77-.1c0-1-.73-1.51-1.76-1.51s-1.77.56-1.77,1.51.79,1.47,1.77,1.47S301.81,93.1,301.81,92.12Zm-.42-3.57a1.35,1.35,0,0,0-2.68,0,1.35,1.35,0,0,0,2.68,0Z"/><path class="cls-5" d="M310,91.71c0,1.87-1,3.06-2.53,3.06A2.27,2.27,0,0,1,305.7,94v3.12h-1.23V88.75h1.23v.66a2.19,2.19,0,0,1,1.79-.78C309.11,88.63,310,89.91,310,91.71Zm-1.23,0c0-1.25-.53-2-1.58-2s-1.63.8-1.63,2,.52,2,1.62,2S308.79,92.91,308.79,91.7Z"/><path class="cls-5" d="M312.49,91.68l-2.06-2.93h1.51l1.38,2.09,1.38-2.09h1.51l-2.07,2.93,2.07,3H314.7l-1.38-2.12-1.38,2.12h-1.51Z"/><path class="cls-5" d="M289.09,137.77a3,3,0,0,1-3,3,3,3,0,0,1-3-2.49l1.22-.2a1.73,1.73,0,0,0,3.45-.31,1.56,1.56,0,0,0-1.66-1.66,1.83,1.83,0,0,0-1.57.87l-1.18-.3.78-4.38h4.55v1.19h-3.53l-.36,1.94a2.44,2.44,0,0,1,1.48-.47A2.76,2.76,0,0,1,289.09,137.77Z"/><path class="cls-5" d="M296.1,132.3V133l-3.83,7.68h-1.41l3.68-7.17h-4.46V132.3Z"/><path class="cls-5" d="M303,137.9a3,3,0,1,1-5.51-1.52L300,132.3h1.41l-1.81,2.84a2.85,2.85,0,0,1,.77,0A2.72,2.72,0,0,1,303,137.9Zm-1.26,0a1.72,1.72,0,1,0-1.72,1.69A1.64,1.64,0,0,0,301.78,137.9Z"/><path class="cls-5" d="M310,137.71c0,1.87-1,3.06-2.53,3.06a2.27,2.27,0,0,1-1.79-.78v3.12h-1.23v-8.36h1.23v.66a2.19,2.19,0,0,1,1.79-.78C309.11,134.63,310,135.91,310,137.71Zm-1.23,0c0-1.25-.53-2-1.58-2s-1.63.8-1.63,2,.52,2,1.62,2S308.79,138.91,308.79,137.7Z"/><path class="cls-5" d="M312.49,137.68l-2.06-2.93h1.51l1.38,2.09,1.38-2.09h1.51l-2.07,2.93,2.07,3H314.7l-1.38-2.12-1.38,2.12h-1.51Z"/><polyline class="cls-1" points="359.5 347.02 359.5 353.02 353.5 353.02"/><line class="cls-6" x1="341.5" y1="353.02" x2="251.5" y2="353.02"/><polyline class="cls-1" points="245.5 353.02 239.5 353.02 239.5 347.02"/><line class="cls-7" x1="239.5" y1="335.6" x2="239.5" y2="135.73"/><polyline class="cls-1" points="239.5 130.02 239.5 124.02 245.5 124.02"/><line class="cls-6" x1="257.5" y1="124.02" x2="347.5" y2="124.02"/><polyline class="cls-1" points="353.5 124.02 359.5 124.02 359.5 130.02"/><line class="cls-7" x1="359.5" y1="141.44" x2="359.5" y2="341.31"/></svg>