<svg id="Layer_1" data-name="Layer 1" xmlns="http://www.w3.org/2000/svg" viewBox="0 0 599 433"><defs><style>.cls-1,.cls-2,.cls-3,.cls-5,.cls-6{fill:none;stroke:#2c2c2c;stroke-miterlimit:10;}.cls-2{stroke-dasharray:12.1 12.1;}.cls-3{stroke-dasharray:12.21 12.21;}.cls-4{fill:#0ecbae;fill-opacity:0.6;}.cls-5{stroke-dasharray:12.05 12.05;}.cls-6{stroke-dasharray:12.29 12.29;}.cls-7{fill:#2c2c2c;}</style></defs><title>device_illustration_Min-with_1</title><polyline class="cls-1" points="432.5 394.12 432.5 400.12 426.5 400.12"/><line class="cls-2" x1="414.4" y1="400.12" x2="178.55" y2="400.12"/><polyline class="cls-1" points="172.5 400.12 166.5 400.12 166.5 394.12"/><line class="cls-3" x1="166.5" y1="381.91" x2="166.5" y2="95.03"/><polyline class="cls-1" points="166.5 88.93 166.5 82.93 172.5 82.93"/><line class="cls-2" x1="184.6" y1="82.93" x2="420.45" y2="82.93"/><polyline class="cls-1" points="426.5 82.93 432.5 82.93 432.5 88.93"/><line class="cls-3" x1="432.5" y1="101.14" x2="432.5" y2="388.01"/><rect class="cls-4" x="239.5" y="127.52" width="119.5" height="26"/><rect class="cls-4" x="166.92" y="83.35" width="265.16" height="21.82"/><polyline class="cls-1" points="564.5 405.52 564.5 411.52 558.5 411.52"/><line class="cls-5" x1="546.45" y1="411.52" x2="46.52" y2="411.52"/><polyline class="cls-1" points="40.5 411.52 34.5 411.52 34.5 405.52"/><line class="cls-6" x1="34.5" y1="393.23" x2="34.5" y2="55.17"/><polyline class="cls-1" points="34.5 49.02 34.5 43.02 40.5 43.02"/><line class="cls-5" x1="52.55" y1="43.02" x2="552.48" y2="43.02"/><polyline class="cls-1" points="558.5 43.02 564.5 43.02 564.5 49.02"/><line class="cls-6" x1="564.5" y1="61.32" x2="564.5" y2="399.38"/><rect class="cls-4" x="35.34" y="43.55" width="528.33" height="27.31"/><line class="cls-1" x1="377" y1="241.52" x2="517.82" y2="241.52"/><polygon class="cls-7" points="516.37 246.51 525 241.52 516.37 236.54 516.37 246.51"/><line class="cls-1" x1="221.5" y1="241.52" x2="80.68" y2="241.52"/><polygon class="cls-7" points="82.14 236.54 73.5 241.52 82.14 246.51 82.14 236.54"/><path class="cls-7" d="M283.83,53.3v8.36H282.6v-6h-2V54.62h1.21c.53,0,.8-.2.8-.74V53.3Z"/><path class="cls-7" d="M292.53,60.5v1.16H286.7v-1c1.63-1,4.24-2.75,4.24-4.79a1.29,1.29,0,0,0-1.37-1.45c-1.13,0-1.55.91-1.57,1.89l-1.21-.09a2.78,2.78,0,0,1,2.79-3,2.44,2.44,0,0,1,2.59,2.57c0,2-1.7,3.69-3.37,4.74Z"/><path class="cls-7" d="M293.81,57.49c0-1.86.33-4.32,2.74-4.32,2.2,0,2.81,2.17,2.81,4.33s-.6,4.28-2.72,4.28C294.17,61.78,293.81,59.32,293.81,57.49Zm4.23,0c0-1.58-.16-3.12-1.49-3.12s-1.47,1.59-1.47,3.14.11,3.1,1.52,3.1S298,59,298,57.47Z"/><path class="cls-7" d="M300.75,57.49c0-1.86.34-4.32,2.75-4.32,2.19,0,2.81,2.17,2.81,4.33s-.6,4.28-2.73,4.28C301.11,61.78,300.75,59.32,300.75,57.49Zm4.24,0c0-1.58-.16-3.12-1.49-3.12S302,55.94,302,57.49s.11,3.1,1.53,3.1S305,59,305,57.47Z"/><path class="cls-7" d="M313.49,58.71c0,1.87-1,3.06-2.53,3.06a2.24,2.24,0,0,1-1.78-.78v3.12h-1.24V55.75h1.24v.66a2.17,2.17,0,0,1,1.78-.78C312.58,55.63,313.49,56.91,313.49,58.71Zm-1.23,0c0-1.25-.53-2-1.57-2s-1.63.8-1.63,2,.51,2,1.62,2S312.26,59.91,312.26,58.7Z"/><path class="cls-7" d="M316,58.68l-2.06-2.93h1.51l1.38,2.09,1.38-2.09h1.51l-2.08,2.93,2.08,3h-1.51l-1.38-2.12-1.38,2.12h-1.51Z"/><path class="cls-7" d="M220.4,28.58a5.23,5.23,0,0,1,5.4-5.4,5.12,5.12,0,0,1,5.32,5.24c0,1.82-.86,3.67-2.74,3.67a1.33,1.33,0,0,1-1.43-1,2.09,2.09,0,0,1-.11-.64,2.46,2.46,0,0,1-1.88.9c-1.29,0-1.92-1.05-1.92-2.3,0-1.59,1-3.67,2.89-3.67a1.55,1.55,0,0,1,1.55.95l.14-.66h1a36.22,36.22,0,0,0-.88,4.57c0,.55.12.8.62.8,1.29,0,1.8-1.41,1.8-2.67a4.17,4.17,0,0,0-4.34-4.27,4.29,4.29,0,0,0-4.45,4.43,4.08,4.08,0,0,0,4.35,4.17,4.64,4.64,0,0,0,1.48-.24l.33.92a4.83,4.83,0,0,1-1.82.32A5,5,0,0,1,220.4,28.58Zm6.74-.93c0-.79-.32-1.26-1.08-1.26-1.37,0-2.09,1.55-2.09,2.73,0,.8.35,1.28,1.08,1.28C226.42,30.4,227.14,28.84,227.14,27.65Z"/><path class="cls-7" d="M241.14,27.92v3.74H239.9V28.28c0-.48,0-1.56-1.1-1.56s-1.28,1.26-1.28,2.49v2.45h-1.24V28.3c0-.65-.13-1.58-1.1-1.58-1.19,0-1.27,1.24-1.27,2.49v2.45h-1.24V25.75h1.19v.74a1.9,1.9,0,0,1,3.33.31,2,2,0,0,1,1.92-1.16C240.53,25.64,241.14,26.67,241.14,27.92Z"/><path class="cls-7" d="M247.74,29.09h-4.15a1.5,1.5,0,0,0,1.62,1.56,1.86,1.86,0,0,0,1.51-.67l.87.74a3,3,0,0,1-2.39,1.05,2.75,2.75,0,0,1-2.84-3c0-1.58.86-3.09,2.74-3.09a2.63,2.63,0,0,1,2.68,2.91A3.27,3.27,0,0,1,247.74,29.09Zm-1.15-1v0a1.39,1.39,0,0,0-1.49-1.4,1.49,1.49,0,0,0-1.51,1.43Z"/><path class="cls-7" d="M254.22,23.3v8.36H253V31a2.2,2.2,0,0,1-1.79.77c-1.64,0-2.53-1.3-2.53-3.07s1-3.07,2.53-3.07a2.28,2.28,0,0,1,1.79.78V23.3Zm-1.11,5.41c0-1.13-.54-2-1.62-2s-1.59.76-1.59,2,.52,1.93,1.57,1.93S253.11,29.81,253.11,28.71Z"/><path class="cls-7" d="M256,23.3h1.32v1.29H256Zm0,2.45h1.24v5.91h-1.24Z"/><path class="cls-7" d="M263.85,27.94v3.72h-1.13l-.1-.84a2.18,2.18,0,0,1-1.91.95,1.89,1.89,0,0,1-2.09-1.89,1.5,1.5,0,0,1,.81-1.44,4.09,4.09,0,0,1,1.8-.3h1.38v-.2a1.13,1.13,0,0,0-1.25-1.22,2,2,0,0,0-1.66.92l-.9-.75a3.15,3.15,0,0,1,2.58-1.25A2.2,2.2,0,0,1,263.85,27.94Zm-1.24,1.18v0h-1.23a2,2,0,0,0-1.26.24.67.67,0,0,0-.27.58c0,.5.42.81,1.09.81A1.59,1.59,0,0,0,262.61,29.12Z"/><path class="cls-7" d="M268.3,27.49a7.28,7.28,0,0,1,1.43-4.8h1.11a7.42,7.42,0,0,0-1.56,4.82,7.2,7.2,0,0,0,1.55,4.77h-1.08A7.86,7.86,0,0,1,268.3,27.49Z"/><path class="cls-7" d="M280.44,27.92v3.74H279.2V28.28c0-.48,0-1.56-1.1-1.56s-1.28,1.26-1.28,2.49v2.45h-1.24V28.3c0-.65-.13-1.58-1.1-1.58-1.19,0-1.27,1.24-1.27,2.49v2.45H272V25.75h1.19v.74a1.9,1.9,0,0,1,3.33.31,2,2,0,0,1,1.92-1.16C279.83,25.64,280.44,26.67,280.44,27.92Z"/><path class="cls-7" d="M282.1,23.3h1.32v1.29H282.1Zm0,2.45h1.23v5.91h-1.23Z"/><path class="cls-7" d="M290.34,27.91v3.75h-1.23V28.22c0-.7-.14-1.5-1.15-1.5-1.28,0-1.49,1.22-1.49,2.48v2.46h-1.24V25.75h1.24v.73a2.18,2.18,0,0,1,1.84-.84C289.62,25.64,290.34,26.45,290.34,27.91Z"/><path class="cls-7" d="M292,27.61h3.37v.92H292Z"/><path class="cls-7" d="M296.34,25.75h1.32l1.09,4,1.28-4h1.06l1.26,4,1.12-4h1.31L303,31.66h-1.13l-1.3-4.17-1.3,4.17h-1.12Z"/><path class="cls-7" d="M305.81,23.3h1.32v1.29h-1.32Zm.05,2.45h1.23v5.91h-1.23Z"/><path class="cls-7" d="M314,23.3v8.36H312.8V31a2.18,2.18,0,0,1-1.78.77c-1.64,0-2.53-1.3-2.53-3.07s1-3.07,2.53-3.07a2.26,2.26,0,0,1,1.78.78V23.3Zm-1.12,5.41c0-1.13-.54-2-1.62-2s-1.58.76-1.58,2,.52,1.93,1.57,1.93S312.92,29.81,312.92,28.71Z"/><path class="cls-7" d="M318.83,31.6a3.46,3.46,0,0,1-1,.17,1.53,1.53,0,0,1-1.68-1.68V26.74h-1v-1h1V24.27l1.24-.91v2.39h1.45v1h-1.45V30a.66.66,0,0,0,.74.74,2.28,2.28,0,0,0,.71-.13Z"/><path class="cls-7" d="M325.12,27.91v3.75h-1.24V28.22c0-1-.37-1.5-1.16-1.5-1,0-1.48.78-1.48,2.46v2.48H320V23.3h1.23v3.18a2.17,2.17,0,0,1,1.84-.84C324.4,25.64,325.12,26.44,325.12,27.91Z"/><path class="cls-7" d="M327.18,26h1.41V27.5h-1.41Zm0,4.17h1.41v1.48h-1.41Z"/><path class="cls-7" d="M334.88,29.19h-1.42V28.3h1.59l.38-1.77H334V25.6h1.66l.52-2.3h1l-.52,2.35h1.67l.5-2.35h1l-.53,2.35h1.41v.88H339l-.38,1.77h1.5v.89h-1.69L338,31.66h-1l.53-2.47h-1.68l-.5,2.47h-1Zm2.83-.89.35-1.77H336.4L336,28.3Z"/><path class="cls-7" d="M347.66,28.71c0,1.87-1,3.06-2.53,3.06a2.24,2.24,0,0,1-1.78-.78v3.12h-1.24V25.75h1.24v.66a2.17,2.17,0,0,1,1.78-.78C346.75,25.63,347.66,26.91,347.66,28.71Zm-1.23,0c0-1.25-.53-2-1.57-2s-1.63.8-1.63,2,.51,2,1.62,2S346.43,29.91,346.43,28.7Z"/><path class="cls-7" d="M350.14,28.68l-2.07-2.93h1.52L351,27.84l1.38-2.09h1.52l-2.08,2.93,2.08,3h-1.52L351,29.54l-1.37,2.12h-1.52Z"/><path class="cls-7" d="M354.15,32.28a7.19,7.19,0,0,0,1.54-4.77,7.37,7.37,0,0,0-1.56-4.82h1.12a7.34,7.34,0,0,1,1.43,4.8,7.86,7.86,0,0,1-1.45,4.79Z"/><path class="cls-7" d="M361.54,30.93V29.06c0-.65-.37-.81-.77-.94v-.84a.91.91,0,0,0,.77-1V24.38c0-1,.45-1.6,1.31-1.6h.84v.8h-.44c-.48,0-.67.32-.67.82v1.92a1.29,1.29,0,0,1-.8,1.35v.07a1.25,1.25,0,0,1,.8,1.3V30.9c0,.5.18.84.66.84h.45v.81h-.87C362,32.55,361.54,31.91,361.54,30.93Z"/><path class="cls-7" d="M365.29,30.18h1.33v1.48h-1.33Z"/><path class="cls-7" d="M369.17,30.18h1.33v1.48h-1.33Z"/><path class="cls-7" d="M373.05,30.18h1.33v1.48h-1.33Z"/><path class="cls-7" d="M376,31.74h.44c.47,0,.65-.34.65-.84V29a1.24,1.24,0,0,1,.82-1.3v-.07a1.27,1.27,0,0,1-.82-1.35V24.4c0-.44-.14-.82-.67-.82H376v-.8h.84c.85,0,1.31.59,1.31,1.6V26.3a.89.89,0,0,0,.75,1v.84c-.37.13-.75.28-.75.94v1.87c0,1-.44,1.62-1.3,1.62H376Z"/><path class="cls-7" d="M289.14,89.3V90l-3.83,7.68H283.9l3.68-7.17h-4.46V89.3Z"/><path class="cls-7" d="M296.08,94.9a3,3,0,1,1-5.51-1.52l2.51-4.08h1.41l-1.81,2.84a2.85,2.85,0,0,1,.77,0A2.72,2.72,0,0,1,296.08,94.9Zm-1.26,0a1.72,1.72,0,1,0-1.72,1.69A1.64,1.64,0,0,0,294.82,94.9Z"/><path class="cls-7" d="M297,95.22a2.21,2.21,0,0,1,1.33-2.11,1.85,1.85,0,0,1-.9-1.65,2.6,2.6,0,0,1,5.16,0,1.84,1.84,0,0,1-.9,1.64,2.22,2.22,0,0,1,1.32,2.11c0,1.71-1.44,2.55-3,2.55S297,96.93,297,95.22Zm4.77-.1c0-1-.73-1.51-1.76-1.51s-1.77.56-1.77,1.51.79,1.47,1.77,1.47S301.81,96.1,301.81,95.12Zm-.42-3.57a1.35,1.35,0,0,0-2.68,0,1.35,1.35,0,0,0,2.68,0Z"/><path class="cls-7" d="M310,94.71c0,1.87-1,3.06-2.53,3.06A2.27,2.27,0,0,1,305.7,97v3.12h-1.23V91.75h1.23v.66a2.19,2.19,0,0,1,1.79-.78C309.11,91.63,310,92.91,310,94.71Zm-1.23,0c0-1.25-.53-2-1.58-2s-1.63.8-1.63,2,.52,2,1.62,2S308.79,95.91,308.79,94.7Z"/><path class="cls-7" d="M312.49,94.68l-2.06-2.93h1.51l1.38,2.09,1.38-2.09h1.51l-2.07,2.93,2.07,3H314.7l-1.38-2.12-1.38,2.12h-1.51Z"/><path class="cls-7" d="M289.09,140.77a3,3,0,0,1-3,3,3,3,0,0,1-3-2.49l1.22-.2a1.73,1.73,0,0,0,3.45-.31,1.56,1.56,0,0,0-1.66-1.66,1.83,1.83,0,0,0-1.57.87l-1.18-.3.78-4.38h4.55v1.19h-3.53l-.36,1.94a2.44,2.44,0,0,1,1.48-.47A2.76,2.76,0,0,1,289.09,140.77Z"/><path class="cls-7" d="M296.1,135.3V136l-3.83,7.68h-1.41l3.68-7.17h-4.46V135.3Z"/><path class="cls-7" d="M303,140.9a3,3,0,1,1-5.51-1.52L300,135.3h1.41l-1.81,2.84a2.85,2.85,0,0,1,.77,0A2.72,2.72,0,0,1,303,140.9Zm-1.26,0a1.72,1.72,0,1,0-1.72,1.69A1.64,1.64,0,0,0,301.78,140.9Z"/><path class="cls-7" d="M310,140.71c0,1.87-1,3.06-2.53,3.06a2.27,2.27,0,0,1-1.79-.78v3.12h-1.23v-8.36h1.23v.66a2.19,2.19,0,0,1,1.79-.78C309.11,137.63,310,138.91,310,140.71Zm-1.23,0c0-1.25-.53-2-1.58-2s-1.63.8-1.63,2,.52,2,1.62,2S308.79,141.91,308.79,140.7Z"/><path class="cls-7" d="M312.49,140.68l-2.06-2.93h1.51l1.38,2.09,1.38-2.09h1.51l-2.07,2.93,2.07,3H314.7l-1.38-2.12-1.38,2.12h-1.51Z"/><rect class="cls-1" x="239.5" y="127.02" width="120" height="229"/></svg>